<svg version="1" xmlns="http://www.w3.org/2000/svg" width="813.333" height="813.333" viewBox="0 0 610.000000 610.000000"><path d="M284.6 12.6c-44.4 8.8-79.2 44.6-86.6 89.2l-1.2 7.3-3.2-.7c-12.8-2.8-35.4-1.8-49.3 2.2C72.4 131.1 42.1 216 85 276.8c9.5 13.4 26.8 28.4 40.3 34.8 2 1 3.7 2.1 3.7 2.4 0 .4-1.6 4.1-3.5 8.2-24.1 52.3-3.5 113.5 47.5 141.1 7.9 4.3 21 8.9 30.5 10.8 9 1.8 31 1.8 40 0 21.2-4.2 41-14.7 56-29.7l6.6-6.6 7.2 7.1c15.6 15.3 34 25 55.2 29.2 10.1 2 32 1.8 42.5-.4 36.8-7.8 68.4-36 79.9-71.2 3.8-11.5 4.9-17.1 5.7-28.7 1.2-16.5-2.4-34.9-9.7-50.7-2.2-4.6-3.8-8.5-3.7-8.6.2-.1 3.2-1.9 6.7-3.9 17.8-10.3 33.5-26.8 42.6-44.6 8-15.8 11.5-30.8 11.5-49 0-35-15.5-65.6-44.1-87-22.8-17-54.4-24.3-82.5-19.1l-4.2.8-1.2-7.8c-6.7-46.2-42.5-83.5-87.7-91.4-10.5-1.8-30.4-1.8-39.7.1zm128.2 137.9c4.7 2 10.7 7.8 13.5 13l2.2 4v83c0 82.4 0 83-2.1 87.6-2.5 5.3-8 11-13.2 13.6-3.3 1.6-7.6 1.8-44.2 2.3l-40.5.5-70.4 34.8c-38.7 19.1-70.6 34.5-70.9 34.3-.2-.3 4.2-15.2 9.8-33.3 5.5-18 10.3-33.6 10.6-34.5.4-1.4-.9-1.7-11.8-2-9.7-.2-13.1-.7-16.2-2.2-5-2.5-10-7.5-12.8-12.9l-2.3-4.2v-166l2.7-5.1c3-5.8 7.3-9.8 13.3-12.5 3.8-1.8 9.8-1.9 116.3-1.9 99.1 0 112.7.2 116 1.5zM64.5 511.2c-3.3 1.8-4.5 4-4.5 8.1 0 4.8 16.3 71.4 18.5 75.6 2 3.9 4.3 5.1 9.9 5.1 5.2 0 7.9-2 10.1-7.3.7-1.8 4.5-15.2 8.5-29.9 4.1-14.8 7.5-26.7 7.6-26.5.1.1 3.7 12.7 7.8 28 7.9 28.9 9.3 33 12.5 34.7 3.5 1.8 10.9 1.2 13.1-1 3-3 3.4-4.4 12.6-41.3 10-40.3 10.2-42.2 4.3-45.2-4.1-2.2-6.7-1.8-9.8 1.2-2.4 2.5-3.4 6-8.6 29.5-3.3 14.8-6.2 26.8-6.5 26.8-.3 0-3.4-10.7-6.9-23.8-3.5-13-7.1-25.6-8.1-27.9-3-6.9-10.3-9.2-16.6-5.4-4 2.5-5.5 6.4-12.9 34.1-3.1 11.8-6 21.8-6.4 22.3-.4.4-3.1-9.8-5.9-22.6-2.9-12.8-5.7-25-6.3-27.1-2-7.1-7.3-10.3-12.4-7.4zM248.5 512.4c-3.3 3.4-3.7 8.1-3.3 47.6.3 31.1.5 34.9 2.1 37.3 1.3 2.1 2.5 2.7 5.3 2.7 4.9 0 7-1.4 8.4-5.5l1.2-3.6 2.6 2.7c4.7 4.6 9.5 6.4 17 6.4 16.9 0 27.2-12.7 27.2-33.4 0-9.8-1-13.5-5.2-20.5-4.8-8-11.7-11.6-21.8-11.5-7.9 0-11.2 1.1-16.8 5.9l-3 2.5-.4-14.1c-.3-14-.3-14.1-3.1-16.5-3.6-3-7.1-3.1-10.2 0zm37.2 37.8c5.7 5.2 8 16.6 5.2 25.9-3.8 12.4-19.4 14.5-25.6 3.4-4.1-7.3-2.8-21.9 2.5-27.9 4.5-5 13.3-5.7 17.9-1.4zM505.2 511.1c-12.1 2.3-22.3 10.2-27.7 21.2-9 18.5-6.2 42.3 6.7 56.3 7.6 8.3 15.5 11.4 29.5 11.5 13.3.1 21.5-3.1 28.7-11.2 7.7-8.4 9.9-18.7 5.1-23.4-4.6-4.7-10.3-2.4-13.6 5.2-4.5 10.6-10.1 14.5-20.6 14.5-14 .1-22.3-10.9-22.3-29.2 0-19.9 10.8-32.7 25.9-30.6 6.6.9 10.1 3.4 15.4 11.1 2.6 3.8 5.3 7.2 6 7.7 2.4 1.6 6.8.8 9.2-1.7 2.9-2.8 3.2-6.8 1-12.1-6-14.5-25-22.9-43.3-19.3zM325.6 514.3c-1.4 1.4-2.7 4-3.1 5.8-.3 1.9-.5 19.5-.3 39.1l.3 35.6 2.4 2.6c3.4 3.6 9.8 3.6 13.2 0 2.3-2.5 2.4-3.2 2.7-19l.3-16.4h4.5c9.6 0 13.7 3.5 24.4 21.2 9.4 15.5 10.6 16.8 16.3 16.8 5 0 8.7-3 8.7-7.1 0-5.7-8-19-16.9-28.1-3.9-4.1-5-5.8-3.8-5.8 2.4 0 9.6-3.7 12.5-6.4 9.1-8.2 8.8-25.1-.5-33.7-6.6-6.2-7.7-6.4-34-6.7l-24.3-.3-2.4 2.4zm42.9 13.1c7.2 3.1 8.5 13.3 2.2 18-2.5 1.8-4.5 2.1-16.3 2.4l-13.4.4V526h12c8.3 0 13.2.5 15.5 1.4zM397.5 514.5c-1.4 1.3-2.5 3.6-2.5 5s1.1 3.7 2.5 5c2.3 2.4 3 2.5 14 2.5H423v33c0 39.8 0 40 10 40 3 0 4.3-.6 5.9-2.6 2-2.6 2.1-3.8 2.1-36.5V527h11.1c10.5 0 14.4-.8 16.1-3.4 1.5-2.2.8-7.6-1.2-9.6-1.9-1.9-3.3-2-34.5-2h-32.6l-2.4 2.5zM193.3 535.8c-13.9 5-21.1 17.2-20.1 34.1.6 10.1 3.6 16.9 10 22.6 6 5.4 12.4 7.6 22.1 7.6 8.7 0 11.6-.6 17.8-3.7 10.1-5 14.4-15.8 7.3-18.4-3.2-1.2-4.9-.5-10.9 4.7-12.2 10.6-25.4 7-28.9-8l-.6-2.7h16.7c18.6-.1 24-.9 26.6-4.1 3.6-4.4 1.1-16.7-4.8-23.6-7.6-8.9-23.4-12.7-35.2-8.5zm18.3 12.7c3.2 2.1 5.4 5.6 6.1 9.9l.6 3.6H191v-2.9c0-3.8 3.8-9.2 8-11.4 3.9-2 8.8-1.7 12.6.8z"/></svg>